<svg width="10" height="14" viewBox="0 0 10 14" fill="none" xmlns="http://www.w3.org/2000/svg">
<path d="M4.99999 6.66658C4.55797 6.66658 4.13404 6.49099 3.82148 6.17843C3.50892 5.86587 3.33333 5.44195 3.33333 4.99992C3.33333 4.55789 3.50892 4.13397 3.82148 3.82141C4.13404 3.50885 4.55797 3.33325 4.99999 3.33325C5.44202 3.33325 5.86595 3.50885 6.17851 3.82141C6.49107 4.13397 6.66666 4.55789 6.66666 4.99992C6.66666 5.21879 6.62355 5.43551 6.53979 5.63772C6.45604 5.83993 6.33327 6.02367 6.17851 6.17843C6.02374 6.33319 5.84001 6.45596 5.6378 6.53972C5.43559 6.62348 5.21886 6.66658 4.99999 6.66658ZM4.99999 0.333252C3.76232 0.333252 2.57533 0.824917 1.70016 1.70009C0.824993 2.57526 0.333328 3.76224 0.333328 4.99992C0.333328 8.49992 4.99999 13.6666 4.99999 13.6666C4.99999 13.6666 9.66666 8.49992 9.66666 4.99992C9.66666 3.76224 9.175 2.57526 8.29983 1.70009C7.42466 0.824917 6.23767 0.333252 4.99999 0.333252Z" fill="white"/>
</svg>
