<svg width="14" height="12" viewBox="0 0 14 12" fill="none" xmlns="http://www.w3.org/2000/svg">
<path d="M1.66666 11.3334C1.29999 11.3334 0.986217 11.203 0.725328 10.9421C0.464439 10.6812 0.333773 10.3672 0.333328 10.0001V2.00008C0.333328 1.63341 0.463995 1.31964 0.725328 1.05875C0.986662 0.797859 1.30044 0.667192 1.66666 0.666748H12.3333C12.7 0.666748 13.014 0.797415 13.2753 1.05875C13.5367 1.32008 13.6671 1.63386 13.6667 2.00008V10.0001C13.6667 10.3667 13.5362 10.6807 13.2753 10.9421C13.0144 11.2034 12.7004 11.3339 12.3333 11.3334H1.66666ZM7 6.66675L12.3333 3.33341V2.00008L7 5.33342L1.66666 2.00008V3.33341L7 6.66675Z" fill="white"/>
</svg>
