<svg width="22" height="22" viewBox="0 0 22 22" fill="none" xmlns="http://www.w3.org/2000/svg">
<path d="M6.5 11H12.5M6.5 7H9.5M7.5 19C8.55 19.87 9.815 20.424 11.264 20.519C12.405 20.594 13.597 20.594 14.737 20.519C15.1444 20.4908 15.545 20.4004 15.925 20.251C16.335 20.084 16.539 20.001 16.644 20.014C16.748 20.026 16.899 20.136 17.201 20.356C17.734 20.744 18.405 21.022 19.401 20.999C19.904 20.987 20.156 20.98 20.268 20.791C20.381 20.601 20.241 20.339 19.96 19.814C19.57 19.086 19.324 18.253 19.698 17.585C20.341 16.631 20.888 15.502 20.968 14.282C21.011 13.627 21.011 12.948 20.968 12.292C20.9159 11.5004 20.7235 10.7243 20.4 10" stroke="#CBCBCB" stroke-width="1.5" stroke-linecap="round" stroke-linejoin="round"/>
<path d="M11.345 16.487C14.901 16.253 17.733 13.407 17.965 9.834C18.011 9.135 18.011 8.411 17.965 7.712C17.733 4.14 14.901 1.294 11.345 1.06C10.132 0.98 8.865 0.98 7.655 1.06C4.099 1.294 1.267 4.14 1.035 7.712C0.989004 8.412 0.989004 9.135 1.035 9.834C1.119 11.136 1.7 12.34 2.384 13.358C2.781 14.07 2.519 14.958 2.105 15.735C1.807 16.295 1.658 16.575 1.778 16.777C1.898 16.979 2.165 16.986 2.7 16.998C3.757 17.024 4.47 16.727 5.036 16.313C5.357 16.079 5.518 15.962 5.629 15.948C5.739 15.935 5.957 16.023 6.392 16.201C6.784 16.361 7.238 16.459 7.655 16.487C8.865 16.567 10.132 16.567 11.345 16.487Z" stroke="#CBCBCB" stroke-width="1.5" stroke-linecap="round" stroke-linejoin="round"/>
</svg>
