<svg width="18" height="22" viewBox="0 0 18 22" fill="none" xmlns="http://www.w3.org/2000/svg">
<path d="M14.25 5.75C14.25 7.14239 13.6969 8.47774 12.7123 9.46231C11.7277 10.4469 10.3924 11 9 11C7.60761 11 6.27226 10.4469 5.28769 9.46231C4.30312 8.47774 3.75 7.14239 3.75 5.75C3.75 4.35761 4.30312 3.02226 5.28769 2.03769C6.27226 1.05312 7.60761 0.5 9 0.5C10.3924 0.5 11.7277 1.05312 12.7123 2.03769C13.6969 3.02226 14.25 4.35761 14.25 5.75ZM12.75 5.75C12.75 4.75544 12.3549 3.80161 11.6517 3.09835C10.9484 2.39509 9.99456 2 9 2C8.00544 2 7.05161 2.39509 6.34835 3.09835C5.64509 3.80161 5.25 4.75544 5.25 5.75C5.25 6.74456 5.64509 7.69839 6.34835 8.40165C7.05161 9.10491 8.00544 9.5 9 9.5C9.99456 9.5 10.9484 9.10491 11.6517 8.40165C12.3549 7.69839 12.75 6.74456 12.75 5.75ZM2.625 12.5C1.92881 12.5 1.26113 12.7766 0.768845 13.2688C0.276562 13.7611 0 14.4288 0 15.125V15.5C0 17.2948 1.14225 18.8127 2.76375 19.8447C4.39425 20.8827 6.6015 21.5 9 21.5C11.3985 21.5 13.605 20.8827 15.2362 19.8447C16.8577 18.8127 18 17.2948 18 15.5V15.125C18 14.4288 17.7234 13.7611 17.2312 13.2688C16.7389 12.7766 16.0712 12.5 15.375 12.5H2.625ZM1.5 15.125C1.5 14.8266 1.61853 14.5405 1.8295 14.3295C2.04048 14.1185 2.32663 14 2.625 14H15.375C15.6734 14 15.9595 14.1185 16.1705 14.3295C16.3815 14.5405 16.5 14.8266 16.5 15.125V15.5C16.5 16.6047 15.795 17.7118 14.4307 18.5795C13.0755 19.442 11.1578 20 9 20C6.84225 20 4.9245 19.442 3.56925 18.5795C2.20425 17.7125 1.5 16.604 1.5 15.5V15.125Z" fill="#CBCBCB"/>
</svg>
