<svg width="16" height="16" viewBox="0 0 16 16" fill="none" xmlns="http://www.w3.org/2000/svg">
<path fill-rule="evenodd" clip-rule="evenodd" d="M13.5097 0.11189C13.8409 -0.00878455 14.1996 -0.032419 14.5438 0.0437643C14.8879 0.119947 15.2031 0.292782 15.4524 0.541956C15.7017 0.79113 15.8747 1.10629 15.9511 1.45039C16.0274 1.79449 16.0039 2.15323 15.8834 2.48446L11.7989 14.7267C11.6995 15.0276 11.5246 15.2979 11.2909 15.5118C11.0571 15.7257 10.7724 15.876 10.464 15.9485C10.1563 16.0233 9.83441 16.0169 9.5299 15.93C9.22538 15.843 8.94867 15.6785 8.72686 15.4525L6.53486 13.2707L4.23314 14.4616C4.14491 14.5074 4.04627 14.5293 3.94697 14.5253C3.84766 14.5213 3.75112 14.4914 3.66688 14.4387C3.58263 14.3859 3.5136 14.3121 3.4666 14.2246C3.4196 14.137 3.39625 14.0387 3.39886 13.9393L3.49371 10.3005L11.5451 4.45246C11.6211 4.39731 11.6854 4.32773 11.7345 4.24771C11.7835 4.1677 11.8163 4.0788 11.831 3.9861C11.8457 3.8934 11.842 3.79871 11.8201 3.70745C11.7982 3.61618 11.7586 3.53012 11.7034 3.45418C11.6483 3.37823 11.5787 3.3139 11.4987 3.26485C11.4187 3.21579 11.3298 3.18298 11.2371 3.16828C11.1444 3.15358 11.0497 3.15729 10.9584 3.17918C10.8671 3.20108 10.7811 3.24073 10.7051 3.29589L2.51771 9.24332L0.540572 7.26617C0.327489 7.05303 0.170394 6.79053 0.0832609 6.50201C-0.00387194 6.2135 -0.0183403 5.90792 0.0411431 5.61246C0.100951 5.28945 0.245627 4.98816 0.460324 4.73952C0.67502 4.49088 0.952006 4.30385 1.26286 4.1976H1.26629L13.5086 0.110747L13.5097 0.11189Z" fill="white"/>
</svg>
