<svg width="190" height="38" viewBox="0 0 190 38" fill="none" xmlns="http://www.w3.org/2000/svg">
<path d="M170.188 38H18.836C8.43475 38 0 29.6597 0 19.3748V18.6252C0 8.34032 8.43475 0 18.836 0H170.188C180.589 0 189.024 8.34032 189.024 18.6252V19.3748C189 29.6597 180.589 38 170.188 38Z" fill="#A5B4FC"/>
<path d="M20.305 23.4045L16.8932 19.2109H16.8695V23.4045H14.6898V14.3145H16.8695V18.0161H16.9169L20.2103 14.3145H22.9823L19.0019 18.508L23.1956 23.4045H20.305Z" fill="white"/>
<path d="M23.9774 14.3145H25.2332C25.399 14.3145 25.5412 14.3379 25.707 14.3613C25.8729 14.3847 26.015 14.455 26.1572 14.5253C26.2757 14.5956 26.3941 14.7127 26.4652 14.8533C26.5363 14.9939 26.5837 15.1579 26.5837 15.3687C26.5837 15.5796 26.5126 15.7904 26.3704 15.9544C26.2283 16.1184 26.0624 16.2355 25.8255 16.2824C26.1098 16.3058 26.3231 16.423 26.5126 16.587C26.7021 16.7744 26.7732 17.0087 26.7732 17.3132C26.7732 17.4772 26.7258 17.6412 26.6548 17.7818C26.5837 17.9223 26.4652 18.0395 26.3468 18.1566C26.2046 18.2503 26.0387 18.344 25.8492 18.3909C25.6597 18.4378 25.4464 18.4846 25.1858 18.4846H23.9301V14.3145H23.9774ZM24.4039 16.1418H25.2569C25.3516 16.1418 25.4701 16.1184 25.5649 16.095C25.6597 16.0715 25.7781 16.0247 25.8492 15.9778C25.944 15.931 26.015 15.8373 26.0624 15.7436C26.1098 15.6498 26.1335 15.5327 26.1335 15.3921C26.1335 15.2516 26.1098 15.1344 26.0624 15.0641C26.015 14.9704 25.944 14.9002 25.8492 14.8299C25.7544 14.783 25.6597 14.7362 25.5175 14.7127C25.399 14.6893 25.2569 14.6659 25.1147 14.6659H24.4039V16.1418ZM24.4039 18.1098H25.2095C25.3753 18.1098 25.5175 18.0863 25.6597 18.0629C25.8018 18.0395 25.9203 17.9926 26.0387 17.9223C26.1335 17.8521 26.2283 17.7818 26.2994 17.6646C26.3704 17.5709 26.3941 17.4304 26.3941 17.2898C26.3941 17.0087 26.2994 16.7978 26.1098 16.6807C25.9203 16.5401 25.6597 16.4698 25.3043 16.4698H24.4039V18.1098Z" fill="white"/>
<path d="M28.1948 18.1098H30.1614V18.4846H27.7684V14.3145H28.1948V18.1098Z" fill="white"/>
<path d="M42.2685 23.8495L38.2644 18.9531H38.2407V23.8495H35.7055V13.2133H38.2407V17.5474H38.2881L42.1263 13.2133H45.3723L40.7521 18.1097L45.6566 23.8495H42.2685Z" fill="white"/>
<path d="M57.9533 20.757C57.9533 21.3427 57.8349 21.8347 57.5979 22.233C57.361 22.6313 57.053 22.9358 56.6739 23.1935C56.2948 23.4278 55.8447 23.6152 55.3708 23.7089C54.8732 23.8027 54.3757 23.8729 53.8544 23.8729H49.566V13.2133H53.8544C54.2809 13.2133 54.6837 13.2601 55.1339 13.3304C55.5603 13.4241 55.9631 13.5647 56.3185 13.7755C56.6739 13.9864 56.9582 14.2675 57.1952 14.6189C57.4084 14.9703 57.5269 15.4155 57.5269 15.9543C57.5269 16.54 57.361 17.032 57.0293 17.4303C56.6976 17.8051 56.2711 18.0863 55.7499 18.2737C56.0579 18.3205 56.3422 18.4142 56.6028 18.5548C56.8635 18.6954 57.1004 18.8594 57.3136 19.0702C57.5032 19.2811 57.669 19.5154 57.7875 19.7965C57.906 20.101 57.9533 20.4056 57.9533 20.757ZM55.0154 16.2823C55.0154 15.9309 54.8732 15.6498 54.5889 15.4858C54.3046 15.3218 53.9018 15.2281 53.3569 15.2281H52.0775V17.4303H53.4753C53.9729 17.4303 54.3283 17.3366 54.6126 17.1257C54.8732 16.9617 55.0154 16.6806 55.0154 16.2823ZM55.3471 20.5228C55.3471 20.0776 55.1812 19.7731 54.8495 19.6091C54.5178 19.4451 54.0677 19.3514 53.5227 19.3514H52.0775V21.7879H53.5464C53.7597 21.7879 53.9492 21.7644 54.1861 21.741C54.3994 21.6941 54.6126 21.6473 54.7785 21.5536C54.9443 21.4599 55.1102 21.3427 55.2049 21.1787C55.2997 20.9913 55.3471 20.7805 55.3471 20.5228Z" fill="white"/>
<path d="M62.6209 23.8495V13.2133H65.2271V21.6239H69.3971V23.8729H62.6209V23.8495Z" fill="white"/>
<path d="M82.3099 21.9519C82.144 22.2096 81.9308 22.4438 81.6702 22.6781C81.4332 22.9124 81.1489 23.0998 80.8172 23.2873C80.4855 23.4512 80.1301 23.5918 79.751 23.709C79.3482 23.8027 78.9218 23.8729 78.4716 23.8729C77.6897 23.8729 76.9789 23.7324 76.3155 23.4747C75.6521 23.217 75.0835 22.8421 74.6096 22.3736C74.1358 21.905 73.7567 21.3427 73.496 20.6868C73.2354 20.0308 73.0933 19.3279 73.0933 18.5548C73.0933 17.7817 73.2354 17.0789 73.496 16.4229C73.7567 15.7669 74.1358 15.2046 74.6096 14.7361C75.0835 14.2675 75.6521 13.8927 76.3155 13.635C76.9789 13.3773 77.666 13.2367 78.4479 13.2367C78.827 13.2367 79.2061 13.2836 79.5615 13.3538C79.9169 13.4241 80.2723 13.5413 80.5803 13.6818C80.8883 13.8224 81.1963 13.9864 81.4569 14.1972C81.7176 14.3847 81.9308 14.6189 82.1203 14.8766L81.2437 15.5092C81.1489 15.3452 81.0068 15.1812 80.8172 15.0172C80.6277 14.8532 80.4381 14.7126 80.1775 14.5955C79.9406 14.4784 79.6799 14.3612 79.3956 14.2909C79.1113 14.2207 78.8033 14.1738 78.4716 14.1738C77.8082 14.1738 77.2159 14.2909 76.6709 14.5252C76.1497 14.7595 75.6995 15.0875 75.3204 15.4858C74.9413 15.884 74.6807 16.3526 74.4675 16.8914C74.2779 17.4303 74.1831 17.9926 74.1831 18.5782C74.1831 19.1639 74.2779 19.7262 74.4912 20.2651C74.6807 20.8039 74.965 21.2725 75.3441 21.6707C75.6995 22.069 76.1497 22.397 76.6946 22.6313C77.2159 22.8655 77.8082 22.9827 78.4716 22.9827C79.0639 22.9827 79.6326 22.8655 80.1538 22.6313C80.6751 22.397 81.1252 21.9987 81.4806 21.4833L82.3099 21.9519Z" fill="white"/>
<path d="M96.6679 18.5079C96.6679 19.2811 96.5257 19.9839 96.2651 20.6399C96.0045 21.2959 95.6254 21.8581 95.1516 22.3267C94.6777 22.7952 94.1091 23.1701 93.4456 23.4278C92.7822 23.6855 92.0951 23.8261 91.3133 23.8261C90.5551 23.8261 89.8443 23.6855 89.1809 23.4278C88.5175 23.1701 87.9725 22.7952 87.475 22.3267C87.0011 21.8581 86.622 21.2959 86.3614 20.6399C86.1008 19.9839 85.9586 19.2811 85.9586 18.5079C85.9586 17.7348 86.1008 17.032 86.3614 16.376C86.622 15.72 87.0011 15.1578 87.475 14.6892C87.9488 14.2206 88.5175 13.8458 89.1809 13.5881C89.8443 13.3304 90.5314 13.1898 91.3133 13.1898C92.0714 13.1898 92.7822 13.3304 93.4456 13.5881C94.1091 13.8458 94.654 14.2206 95.1516 14.6892C95.6254 15.1578 96.0045 15.72 96.2651 16.376C96.5257 17.032 96.6679 17.7348 96.6679 18.5079ZM95.578 18.5314C95.578 17.9457 95.4833 17.3834 95.2937 16.8446C95.1042 16.3057 94.8199 15.8372 94.4645 15.4389C94.1091 15.0406 93.6589 14.7126 93.1139 14.4784C92.5927 14.2441 92.0004 14.1269 91.337 14.1269C90.6736 14.1269 90.0812 14.2441 89.56 14.4784C89.0387 14.7126 88.5886 15.0406 88.2095 15.4389C87.8304 15.8372 87.5698 16.3057 87.3565 16.8446C87.167 17.3834 87.0722 17.9457 87.0722 18.5314C87.0722 19.1171 87.167 19.6793 87.3565 20.2182C87.5461 20.757 87.8304 21.2256 88.2095 21.6239C88.5649 22.0221 89.015 22.3501 89.56 22.5844C90.0812 22.8187 90.6736 22.9358 91.337 22.9358C92.0004 22.9358 92.5927 22.8187 93.1139 22.5844C93.6352 22.3501 94.0854 22.0221 94.4645 21.6239C94.8199 21.2256 95.1042 20.757 95.2937 20.2182C95.4833 19.6793 95.578 19.1171 95.578 18.5314Z" fill="white"/>
<path d="M106.382 15.0875C106.169 14.7829 105.885 14.5252 105.529 14.3378C105.174 14.1504 104.771 14.0567 104.273 14.0567C104.013 14.0567 103.776 14.1035 103.515 14.1738C103.255 14.2441 103.018 14.3612 102.804 14.5252C102.591 14.6892 102.425 14.8766 102.283 15.1109C102.141 15.3452 102.094 15.6263 102.094 15.9543C102.094 16.2823 102.165 16.54 102.283 16.7509C102.402 16.9617 102.567 17.1491 102.781 17.2897C102.994 17.4303 103.231 17.5474 103.492 17.6646C103.752 17.7583 104.036 17.852 104.321 17.9457C104.676 18.0628 105.032 18.18 105.387 18.3205C105.742 18.4611 106.074 18.6251 106.358 18.836C106.643 19.0468 106.88 19.3279 107.069 19.6559C107.259 19.9839 107.354 20.4056 107.354 20.921C107.354 21.4364 107.259 21.8581 107.069 22.233C106.88 22.6078 106.619 22.9124 106.311 23.1467C106.003 23.381 105.648 23.5684 105.245 23.6855C104.842 23.8027 104.439 23.8495 104.036 23.8495C103.728 23.8495 103.42 23.8261 103.112 23.7558C102.804 23.6855 102.496 23.5918 102.236 23.4747C101.951 23.3575 101.691 23.1935 101.454 23.0061C101.217 22.8187 101.004 22.5844 100.814 22.3501L101.715 21.6942C101.928 22.069 102.259 22.3501 102.639 22.6078C103.041 22.8421 103.515 22.9827 104.06 22.9827C104.321 22.9827 104.581 22.9358 104.866 22.8655C105.126 22.7953 105.387 22.6547 105.6 22.4907C105.813 22.3267 106.003 22.1159 106.145 21.8816C106.287 21.6473 106.358 21.3427 106.358 21.0382C106.358 20.6868 106.287 20.3822 106.145 20.1479C106.003 19.9136 105.813 19.7262 105.577 19.5622C105.34 19.3982 105.079 19.2811 104.771 19.1639C104.463 19.0468 104.155 18.9531 103.823 18.8594C103.492 18.7422 103.16 18.6251 102.828 18.508C102.496 18.3674 102.212 18.2034 101.951 17.9926C101.691 17.7817 101.478 17.524 101.312 17.196C101.146 16.8914 101.075 16.4932 101.075 16.0246C101.075 15.5326 101.17 15.1109 101.383 14.7595C101.572 14.4081 101.833 14.1035 102.165 13.8927C102.496 13.6584 102.828 13.4944 103.231 13.4007C103.61 13.2836 103.989 13.2367 104.368 13.2367C105.055 13.2367 105.648 13.3538 106.145 13.6115C106.643 13.8458 107.022 14.1504 107.259 14.4784L106.382 15.0875Z" fill="white"/>
<path d="M117.897 22.0924L121.356 13.6818H122.944V23.826H121.901V15.0406H121.877L118.158 23.8495H117.613L113.893 15.0406H113.869V23.8495H112.827V13.7052H114.414L117.897 22.0924Z" fill="white"/>
<path d="M130.099 22.9358H135.596V23.8495H129.056V13.7052H135.43V14.6189H130.099V18.1096H135.074V19.0233H130.099V22.9358Z" fill="white"/>
<path d="M145.239 23.8495H144.196V14.6189H140.761V13.7052H148.674V14.6189H145.239V23.8495Z" fill="white"/>
<path d="M154.882 23.8495H153.839V13.7052H154.882V23.8495Z" fill="white"/>
<path d="M169.169 21.9519C169.003 22.2096 168.79 22.4438 168.529 22.6781C168.292 22.9124 168.008 23.0998 167.676 23.2873C167.344 23.4512 166.989 23.5918 166.61 23.709C166.207 23.8027 165.781 23.8729 165.331 23.8729C164.549 23.8729 163.838 23.7324 163.174 23.4747C162.511 23.217 161.942 22.8421 161.469 22.3736C160.995 21.905 160.616 21.3427 160.355 20.6868C160.094 20.0308 159.952 19.3279 159.952 18.5548C159.952 17.7817 160.094 17.0789 160.355 16.4229C160.616 15.7669 160.995 15.2046 161.469 14.7361C161.942 14.2675 162.511 13.8927 163.174 13.635C163.838 13.3773 164.525 13.2367 165.307 13.2367C165.686 13.2367 166.065 13.2836 166.42 13.3538C166.776 13.4241 167.131 13.5413 167.439 13.6818C167.747 13.8224 168.055 13.9864 168.316 14.1972C168.577 14.3847 168.79 14.6189 168.979 14.8766L168.103 15.5092C168.008 15.3452 167.866 15.1812 167.676 15.0172C167.487 14.8532 167.297 14.7126 167.036 14.5955C166.8 14.4784 166.539 14.3612 166.255 14.2909C165.97 14.2207 165.662 14.1738 165.331 14.1738C164.667 14.1738 164.075 14.2909 163.53 14.5252C163.009 14.7595 162.558 15.0875 162.179 15.4858C161.824 15.884 161.54 16.3526 161.326 16.8914C161.137 17.4303 161.042 17.9926 161.042 18.5782C161.042 19.1639 161.137 19.7262 161.35 20.2651C161.54 20.8039 161.824 21.2725 162.203 21.6707C162.582 22.069 163.009 22.397 163.554 22.6313C164.075 22.8655 164.667 22.9827 165.331 22.9827C165.923 22.9827 166.492 22.8655 167.013 22.6313C167.534 22.397 167.984 21.9987 168.34 21.4833L169.169 21.9519Z" fill="white"/>
<path d="M179.641 15.0875C179.428 14.7829 179.144 14.5252 178.788 14.3378C178.433 14.1504 178.03 14.0567 177.533 14.0567C177.272 14.0567 177.035 14.1035 176.774 14.1738C176.514 14.2441 176.277 14.3612 176.064 14.5252C175.85 14.6892 175.684 14.8766 175.542 15.1109C175.4 15.3452 175.353 15.6263 175.353 15.9543C175.353 16.2823 175.424 16.54 175.542 16.7509C175.661 16.9617 175.827 17.1491 176.04 17.2897C176.253 17.4303 176.49 17.5474 176.751 17.6646C177.011 17.7583 177.296 17.852 177.58 17.9457C177.935 18.0628 178.291 18.18 178.646 18.3205C179.001 18.4611 179.333 18.6251 179.618 18.836C179.902 19.0468 180.139 19.3279 180.328 19.6559C180.518 19.9839 180.613 20.4056 180.613 20.921C180.613 21.4364 180.518 21.8581 180.328 22.233C180.139 22.6078 179.878 22.9124 179.57 23.1467C179.262 23.381 178.907 23.5684 178.504 23.6855C178.101 23.8027 177.698 23.8495 177.296 23.8495C176.988 23.8495 176.68 23.8261 176.372 23.7558C176.064 23.6855 175.779 23.5918 175.495 23.4747C175.211 23.3575 174.95 23.1935 174.713 23.0061C174.476 22.8187 174.263 22.5844 174.073 22.3501L174.974 21.6942C175.187 22.069 175.519 22.3501 175.898 22.6078C176.3 22.8421 176.774 22.9827 177.319 22.9827C177.58 22.9827 177.841 22.9358 178.125 22.8655C178.385 22.7953 178.646 22.6547 178.859 22.4907C179.073 22.3267 179.262 22.1159 179.404 21.8816C179.546 21.6473 179.618 21.3427 179.618 21.0382C179.618 20.6868 179.546 20.3822 179.404 20.1479C179.262 19.9136 179.073 19.7262 178.836 19.5622C178.599 19.3982 178.338 19.2811 178.03 19.1639C177.722 19.0468 177.414 18.9531 177.082 18.8594C176.751 18.7422 176.419 18.6251 176.087 18.508C175.756 18.3674 175.471 18.2034 175.211 17.9926C174.95 17.7817 174.737 17.524 174.571 17.196C174.405 16.8914 174.334 16.4932 174.334 16.0246C174.334 15.5326 174.429 15.1109 174.618 14.7595C174.808 14.4081 175.068 14.1035 175.4 13.8927C175.708 13.6584 176.064 13.4944 176.466 13.4007C176.845 13.2836 177.225 13.2367 177.604 13.2367C178.291 13.2367 178.883 13.3538 179.381 13.6115C179.878 13.8458 180.257 14.1504 180.494 14.4784L179.641 15.0875Z" fill="white"/>
<path d="M20.3524 30.5733C13.5762 30.5733 8.07935 25.1849 8.07935 18.5314C8.07935 11.8779 13.5762 6.4895 20.3524 6.4895C23.4562 6.4895 26.2994 7.61404 28.4554 9.48827L29.569 8.64486C27.1286 6.46607 23.9064 5.13068 20.3524 5.13068C12.7943 5.10726 6.68146 11.1048 6.68146 18.508C6.68146 25.9112 12.7943 31.9087 20.3524 31.9087C24.3091 31.9087 27.8868 30.2454 30.3746 27.598L29.1662 26.8717C26.9391 29.1677 23.8116 30.5733 20.3524 30.5733Z" fill="white"/>
</svg>
