<svg width="36" height="36" viewBox="0 0 36 36" fill="none" xmlns="http://www.w3.org/2000/svg">
<path d="M35.4375 18C35.4375 27.6328 27.6328 35.4375 18 35.4375C16.2 35.4375 14.4703 35.1633 12.8391 34.657C13.5492 33.4969 14.6109 31.5984 15.0047 30.0867C15.2156 29.2711 16.0875 25.9383 16.0875 25.9383C16.657 27.0211 18.3164 27.9422 20.0813 27.9422C25.3406 27.9422 29.1305 23.1047 29.1305 17.093C29.1305 11.3344 24.4266 7.02422 18.3797 7.02422C10.8562 7.02422 6.85547 12.0727 6.85547 17.5781C6.85547 20.1375 8.21953 23.3227 10.3922 24.3352C10.7227 24.4898 10.8984 24.4195 10.9758 24.1031C11.032 23.8641 11.3273 22.6758 11.4609 22.1273C11.5031 21.9516 11.482 21.7969 11.3414 21.6281C10.6313 20.7492 10.0547 19.1461 10.0547 17.6484C10.0547 13.8023 12.9656 10.0828 17.9297 10.0828C22.2117 10.0828 25.2141 13.0008 25.2141 17.1773C25.2141 21.8953 22.8305 25.1648 19.7297 25.1648C18.0211 25.1648 16.7344 23.7516 17.1492 22.0148C17.6414 19.9406 18.5906 17.7047 18.5906 16.207C18.5906 14.8711 17.8734 13.7531 16.3828 13.7531C14.632 13.7531 13.2258 15.5602 13.2258 17.9859C13.2258 19.5328 13.7461 20.5734 13.7461 20.5734C13.7461 20.5734 12.0234 27.8719 11.707 29.2359C11.3555 30.7406 11.4961 32.8641 11.6438 34.2422C5.16094 31.7039 0.5625 25.3898 0.5625 18C0.5625 8.36719 8.36719 0.5625 18 0.5625C27.6328 0.5625 35.4375 8.36719 35.4375 18Z" fill="#A5B4FC"/>
</svg>
